<mxfile host="65bd71144e">
    <diagram id="gQvZ3Ct7qIMsR-oPEBA1" name="Page-1">
        <mxGraphModel dx="2398" dy="1734" grid="1" gridSize="10" guides="1" tooltips="1" connect="1" arrows="1" fold="1" page="1" pageScale="1" pageWidth="827" pageHeight="1169" math="0" shadow="0">
            <root>
                <mxCell id="0"/>
                <mxCell id="1" parent="0"/>
                <mxCell id="497" style="edgeStyle=none;html=1;exitX=0.25;exitY=0;exitDx=0;exitDy=0;entryX=1;entryY=0.5;entryDx=0;entryDy=0;endArrow=none;endFill=0;fontSize=12;" parent="1" source="499" target="644" edge="1">
                    <mxGeometry relative="1" as="geometry">
                        <mxPoint x="-120" y="80" as="targetPoint"/>
                        <Array as="points">
                            <mxPoint x="350" y="80"/>
                        </Array>
                    </mxGeometry>
                </mxCell>
                <mxCell id="498" style="edgeStyle=none;html=1;endArrow=none;endFill=0;exitX=0.126;exitY=1.002;exitDx=0;exitDy=0;exitPerimeter=0;entryX=0.5;entryY=0;entryDx=0;entryDy=0;fontSize=12;" parent="1" source="500" target="663" edge="1">
                    <mxGeometry relative="1" as="geometry">
                        <mxPoint x="270" y="380" as="targetPoint"/>
                        <Array as="points">
                            <mxPoint x="330" y="340"/>
                            <mxPoint x="265" y="340"/>
                        </Array>
                    </mxGeometry>
                </mxCell>
                <mxCell id="499" value="Utente" style="swimlane;childLayout=stackLayout;horizontal=1;startSize=30;horizontalStack=0;rounded=1;fontSize=12;fontStyle=0;strokeWidth=2;resizeParent=0;resizeLast=1;shadow=0;dashed=0;align=center;fillColor=#1ba1e2;fontColor=#ffffff;strokeColor=#006EAF;" parent="1" vertex="1">
                    <mxGeometry x="310" y="120" width="160" height="130" as="geometry"/>
                </mxCell>
                <mxCell id="500" value="+ PK: Id&#10;+ Nome&#10;+ Cognome&#10;+ Email&#10;+ Password&#10;+ Status" style="align=left;strokeColor=none;fillColor=none;spacingLeft=4;fontSize=12;verticalAlign=top;resizable=0;rotatable=0;part=1;" parent="499" vertex="1">
                    <mxGeometry y="30" width="160" height="100" as="geometry"/>
                </mxCell>
                <mxCell id="501" value="Indirizzo" style="swimlane;childLayout=stackLayout;horizontal=1;startSize=30;horizontalStack=0;rounded=1;fontSize=12;fontStyle=0;strokeWidth=2;resizeParent=0;resizeLast=1;shadow=0;dashed=0;align=center;fillColor=#1ba1e2;fontColor=#ffffff;strokeColor=#006EAF;" parent="1" vertex="1">
                    <mxGeometry x="680" y="112.5" width="160" height="147.5" as="geometry"/>
                </mxCell>
                <mxCell id="502" value="+ PK: Id&#10;+ Via&#10;+ Numero civico&#10;+ CittÃ &#10;+ Regione&#10;+ Cap&#10;+ Status" style="align=left;strokeColor=none;fillColor=none;spacingLeft=4;fontSize=12;verticalAlign=top;resizable=0;rotatable=0;part=1;" parent="501" vertex="1">
                    <mxGeometry y="30" width="160" height="117.5" as="geometry"/>
                </mxCell>
                <mxCell id="503" style="edgeStyle=none;html=1;exitX=0;exitY=0.5;exitDx=0;exitDy=0;entryX=1;entryY=0.5;entryDx=0;entryDy=0;endArrow=none;endFill=0;fontSize=12;" parent="1" source="505" target="500" edge="1">
                    <mxGeometry relative="1" as="geometry"/>
                </mxCell>
                <mxCell id="504" style="edgeStyle=none;html=1;exitX=1;exitY=0.5;exitDx=0;exitDy=0;endArrow=none;endFill=0;fontSize=12;" parent="1" source="505" target="502" edge="1">
                    <mxGeometry relative="1" as="geometry"/>
                </mxCell>
                <mxCell id="505" value="Ubicato" style="shape=rhombus;perimeter=rhombusPerimeter;whiteSpace=wrap;html=1;align=center;fontSize=12;" parent="1" vertex="1">
                    <mxGeometry x="540" y="165" width="80" height="70" as="geometry"/>
                </mxCell>
                <mxCell id="506" value="Forma_di_pagamento" style="swimlane;childLayout=stackLayout;horizontal=1;startSize=30;horizontalStack=0;rounded=1;fontSize=12;fontStyle=0;strokeWidth=2;resizeParent=0;resizeLast=1;shadow=0;dashed=0;align=center;fillColor=#1ba1e2;fontColor=#ffffff;strokeColor=#006EAF;" parent="1" vertex="1">
                    <mxGeometry x="-130" y="132.5" width="160" height="137.5" as="geometry"/>
                </mxCell>
                <mxCell id="507" style="edgeStyle=none;html=1;fontSize=12;" parent="506" source="508" target="506" edge="1">
                    <mxGeometry relative="1" as="geometry"/>
                </mxCell>
                <mxCell id="508" value="+ PK: Id&#10;+ Circuito&#10;+ Numero_carta&#10;+ Data_scadenza&#10;+ CVV&#10;+ Status&#10;&#10;&#10;" style="align=left;strokeColor=none;fillColor=none;spacingLeft=4;fontSize=12;verticalAlign=top;resizable=0;rotatable=0;part=1;" parent="506" vertex="1">
                    <mxGeometry y="30" width="160" height="107.5" as="geometry"/>
                </mxCell>
                <mxCell id="509" value="Tipo_pagamento" style="swimlane;childLayout=stackLayout;horizontal=1;startSize=30;horizontalStack=0;rounded=1;fontSize=12;fontStyle=0;strokeWidth=2;resizeParent=0;resizeLast=1;shadow=0;dashed=0;align=center;fillColor=#1ba1e2;fontColor=#ffffff;strokeColor=#006EAF;" parent="1" vertex="1">
                    <mxGeometry x="40" y="270" width="110" height="80" as="geometry"/>
                </mxCell>
                <mxCell id="510" value="+ PK: Id&#10;+ Valore&#10;+ Status&#10;" style="align=left;strokeColor=none;fillColor=none;spacingLeft=4;fontSize=12;verticalAlign=top;resizable=0;rotatable=0;part=1;" parent="509" vertex="1">
                    <mxGeometry y="30" width="110" height="50" as="geometry"/>
                </mxCell>
                <mxCell id="511" style="edgeStyle=none;html=1;exitX=1;exitY=0.5;exitDx=0;exitDy=0;entryX=0;entryY=0.5;entryDx=0;entryDy=0;endArrow=none;endFill=0;fontSize=12;" parent="1" source="513" target="500" edge="1">
                    <mxGeometry relative="1" as="geometry"/>
                </mxCell>
                <mxCell id="512" style="edgeStyle=none;html=1;exitX=0;exitY=0.5;exitDx=0;exitDy=0;endArrow=none;endFill=0;entryX=0.996;entryY=0.363;entryDx=0;entryDy=0;entryPerimeter=0;fontSize=12;" parent="1" source="513" target="508" edge="1">
                    <mxGeometry relative="1" as="geometry">
                        <mxPoint x="80" y="200" as="targetPoint"/>
                    </mxGeometry>
                </mxCell>
                <mxCell id="513" value="Amministra" style="shape=rhombus;perimeter=rhombusPerimeter;whiteSpace=wrap;html=1;align=center;fontSize=12;" parent="1" vertex="1">
                    <mxGeometry x="120" y="170" width="80" height="60" as="geometry"/>
                </mxCell>
                <mxCell id="514" style="edgeStyle=none;html=1;exitX=0.5;exitY=0;exitDx=0;exitDy=0;endArrow=none;endFill=0;fontSize=12;" parent="1" source="516" target="508" edge="1">
                    <mxGeometry relative="1" as="geometry"/>
                </mxCell>
                <mxCell id="515" style="edgeStyle=none;html=1;exitX=1;exitY=0.5;exitDx=0;exitDy=0;endArrow=none;endFill=0;entryX=0;entryY=0.25;entryDx=0;entryDy=0;fontSize=12;" parent="1" source="516" target="510" edge="1">
                    <mxGeometry relative="1" as="geometry">
                        <mxPoint x="60" y="315" as="targetPoint"/>
                    </mxGeometry>
                </mxCell>
                <mxCell id="516" value="Rispettivo" style="shape=rhombus;perimeter=rhombusPerimeter;whiteSpace=wrap;html=1;align=center;fontSize=12;" parent="1" vertex="1">
                    <mxGeometry x="-90" y="285.63" width="80" height="56.25" as="geometry"/>
                </mxCell>
                <mxCell id="517" value="Carrello" style="swimlane;childLayout=stackLayout;horizontal=1;startSize=30;horizontalStack=0;rounded=1;fontSize=12;fontStyle=0;strokeWidth=2;resizeParent=0;resizeLast=1;shadow=0;dashed=0;align=center;fillColor=#1ba1e2;fontColor=#ffffff;strokeColor=#006EAF;" parent="1" vertex="1">
                    <mxGeometry x="-290" y="410" width="160" height="70" as="geometry"/>
                </mxCell>
                <mxCell id="518" value="+ PK: Id&#10;+ Status&#10;" style="align=left;strokeColor=none;fillColor=none;spacingLeft=4;fontSize=12;verticalAlign=top;resizable=0;rotatable=0;part=1;" parent="517" vertex="1">
                    <mxGeometry y="30" width="160" height="40" as="geometry"/>
                </mxCell>
                <mxCell id="519" style="edgeStyle=none;html=1;exitX=0.5;exitY=0;exitDx=0;exitDy=0;endArrow=none;endFill=0;entryX=0;entryY=0.75;entryDx=0;entryDy=0;fontSize=12;" parent="1" source="521" target="500" edge="1">
                    <mxGeometry relative="1" as="geometry">
                        <Array as="points">
                            <mxPoint x="198" y="225"/>
                        </Array>
                        <mxPoint x="340" y="270" as="targetPoint"/>
                    </mxGeometry>
                </mxCell>
                <mxCell id="520" style="edgeStyle=none;html=1;exitX=0.5;exitY=1;exitDx=0;exitDy=0;entryX=1;entryY=0;entryDx=0;entryDy=0;endArrow=none;endFill=0;fontSize=12;" parent="1" source="521" target="518" edge="1">
                    <mxGeometry relative="1" as="geometry">
                        <Array as="points">
                            <mxPoint x="198" y="400"/>
                            <mxPoint x="70" y="400"/>
                            <mxPoint x="70" y="440"/>
                        </Array>
                    </mxGeometry>
                </mxCell>
                <mxCell id="521" value="Possiede" style="shape=rhombus;perimeter=rhombusPerimeter;whiteSpace=wrap;html=1;align=center;fontSize=12;" parent="1" vertex="1">
                    <mxGeometry x="165" y="290" width="65" height="60" as="geometry"/>
                </mxCell>
                <mxCell id="522" value="Prodotto" style="swimlane;childLayout=stackLayout;horizontal=1;startSize=30;horizontalStack=0;rounded=1;fontSize=12;fontStyle=0;strokeWidth=2;resizeParent=0;resizeLast=1;shadow=0;dashed=0;align=center;arcSize=15;fillColor=#1ba1e2;fontColor=#ffffff;strokeColor=#006EAF;" parent="1" vertex="1">
                    <mxGeometry x="310" y="648.75" width="170" height="110" as="geometry"/>
                </mxCell>
                <mxCell id="523" value="+ PK: Id&#10;+ Nome&#10;+ Descrizione&#10;+ Immagine&#10;+ Status" style="align=left;strokeColor=none;fillColor=none;spacingLeft=4;fontSize=12;verticalAlign=top;resizable=0;rotatable=0;part=1;" parent="522" vertex="1">
                    <mxGeometry y="30" width="170" height="80" as="geometry"/>
                </mxCell>
                <mxCell id="524" value="Categoria" style="swimlane;childLayout=stackLayout;horizontal=1;startSize=30;horizontalStack=0;rounded=1;fontSize=12;fontStyle=0;strokeWidth=2;resizeParent=0;resizeLast=1;shadow=0;dashed=0;align=center;fillColor=#1ba1e2;fontColor=#ffffff;strokeColor=#006EAF;" parent="1" vertex="1">
                    <mxGeometry x="680" y="600" width="160" height="100" as="geometry"/>
                </mxCell>
                <mxCell id="525" value="+ PK: id&#10;+ Nome categoria&#10;+ Descrizione categoria&#10;+ Status" style="align=left;strokeColor=none;fillColor=none;spacingLeft=4;fontSize=12;verticalAlign=top;resizable=0;rotatable=0;part=1;" parent="524" vertex="1">
                    <mxGeometry y="30" width="160" height="70" as="geometry"/>
                </mxCell>
                <mxCell id="526" style="edgeStyle=none;html=1;exitX=0;exitY=0.5;exitDx=0;exitDy=0;endArrow=none;endFill=0;fontSize=12;" parent="1" source="528" edge="1">
                    <mxGeometry relative="1" as="geometry">
                        <mxPoint x="480" y="688.75" as="targetPoint"/>
                    </mxGeometry>
                </mxCell>
                <mxCell id="527" style="edgeStyle=none;html=1;exitX=1;exitY=0.5;exitDx=0;exitDy=0;endArrow=none;endFill=0;fontSize=12;" parent="1" source="528" edge="1">
                    <mxGeometry relative="1" as="geometry">
                        <mxPoint x="680" y="640" as="targetPoint"/>
                        <Array as="points">
                            <mxPoint x="640" y="690"/>
                            <mxPoint x="640" y="640"/>
                        </Array>
                    </mxGeometry>
                </mxCell>
                <mxCell id="528" value="appartiene" style="shape=rhombus;perimeter=rhombusPerimeter;whiteSpace=wrap;html=1;align=center;fontSize=12;" parent="1" vertex="1">
                    <mxGeometry x="540" y="658.75" width="70" height="60" as="geometry"/>
                </mxCell>
                <mxCell id="529" value="Variazione" style="swimlane;childLayout=stackLayout;horizontal=1;startSize=30;horizontalStack=0;rounded=1;fontSize=12;fontStyle=0;strokeWidth=2;resizeParent=0;resizeLast=1;shadow=0;dashed=0;align=center;fillColor=#1ba1e2;fontColor=#ffffff;strokeColor=#006EAF;" parent="1" vertex="1">
                    <mxGeometry x="685" y="975" width="155" height="90" as="geometry"/>
                </mxCell>
                <mxCell id="530" value="+ PK: Id&#10;+ Nome&#10;+ Status" style="align=left;strokeColor=none;fillColor=none;spacingLeft=4;fontSize=12;verticalAlign=top;resizable=0;rotatable=0;part=1;" parent="529" vertex="1">
                    <mxGeometry y="30" width="155" height="60" as="geometry"/>
                </mxCell>
                <mxCell id="531" style="edgeStyle=none;html=1;entryX=0.5;entryY=0;entryDx=0;entryDy=0;endArrow=none;endFill=0;fontSize=12;" parent="1" source="533" target="529" edge="1">
                    <mxGeometry relative="1" as="geometry"/>
                </mxCell>
                <mxCell id="532" style="edgeStyle=none;html=1;entryX=0.5;entryY=1;entryDx=0;entryDy=0;endArrow=none;endFill=0;fontSize=12;" parent="1" source="533" target="525" edge="1">
                    <mxGeometry relative="1" as="geometry"/>
                </mxCell>
                <mxCell id="533" value="appertiene" style="shape=rhombus;perimeter=rhombusPerimeter;whiteSpace=wrap;html=1;align=center;fontSize=12;" parent="1" vertex="1">
                    <mxGeometry x="725" y="800" width="75" height="65" as="geometry"/>
                </mxCell>
                <mxCell id="534" style="edgeStyle=none;html=1;entryX=0;entryY=0.5;entryDx=0;entryDy=0;endArrow=none;endFill=0;fontSize=12;" parent="1" source="535" target="538" edge="1">
                    <mxGeometry relative="1" as="geometry"/>
                </mxCell>
                <mxCell id="535" value="Opzioni_Variazione" style="swimlane;childLayout=stackLayout;horizontal=1;startSize=30;horizontalStack=0;rounded=1;fontSize=12;fontStyle=0;strokeWidth=2;resizeParent=0;resizeLast=1;shadow=0;dashed=0;align=center;fillColor=#1ba1e2;fontColor=#ffffff;strokeColor=#006EAF;" parent="1" vertex="1">
                    <mxGeometry x="336" y="985" width="155" height="85" as="geometry"/>
                </mxCell>
                <mxCell id="536" value="+ PK: Id&#10;+ Valore&#10;+ Status&#10;" style="align=left;strokeColor=none;fillColor=none;spacingLeft=4;fontSize=12;verticalAlign=top;resizable=0;rotatable=0;part=1;" parent="535" vertex="1">
                    <mxGeometry y="30" width="155" height="55" as="geometry"/>
                </mxCell>
                <mxCell id="537" style="edgeStyle=none;html=1;entryX=0;entryY=0.5;entryDx=0;entryDy=0;endArrow=none;endFill=0;fontSize=12;" parent="1" source="538" target="529" edge="1">
                    <mxGeometry relative="1" as="geometry"/>
                </mxCell>
                <mxCell id="538" value="Composto" style="shape=rhombus;perimeter=rhombusPerimeter;whiteSpace=wrap;html=1;align=center;fontSize=12;" parent="1" vertex="1">
                    <mxGeometry x="540" y="990" width="90" height="70" as="geometry"/>
                </mxCell>
                <mxCell id="539" value="Magazzino" style="swimlane;childLayout=stackLayout;horizontal=1;startSize=30;horizontalStack=0;rounded=1;fontSize=12;fontStyle=0;strokeWidth=2;resizeParent=0;resizeLast=1;shadow=0;dashed=0;align=center;fillColor=#1ba1e2;fontColor=#ffffff;strokeColor=#006EAF;" parent="1" vertex="1">
                    <mxGeometry x="710" y="420" width="150" height="100" as="geometry"/>
                </mxCell>
                <mxCell id="540" value="PK: Id&#10;Metri cubi&#10;Status" style="align=left;strokeColor=none;fillColor=none;spacingLeft=4;fontSize=12;verticalAlign=top;resizable=0;rotatable=0;part=1;" parent="539" vertex="1">
                    <mxGeometry y="30" width="150" height="70" as="geometry"/>
                </mxCell>
                <mxCell id="541" style="edgeStyle=none;html=1;exitX=0.5;exitY=0;exitDx=0;exitDy=0;entryX=0.5;entryY=1;entryDx=0;entryDy=0;startArrow=none;startFill=0;endArrow=none;endFill=0;fontSize=12;" parent="1" source="543" target="502" edge="1">
                    <mxGeometry relative="1" as="geometry"/>
                </mxCell>
                <mxCell id="542" style="edgeStyle=none;html=1;exitX=0.5;exitY=1;exitDx=0;exitDy=0;entryX=0;entryY=1;entryDx=0;entryDy=0;startArrow=none;startFill=0;endArrow=none;endFill=0;fontSize=12;" parent="1" source="543" target="579" edge="1">
                    <mxGeometry relative="1" as="geometry"/>
                </mxCell>
                <mxCell id="543" value="Ubicato" style="shape=rhombus;perimeter=rhombusPerimeter;whiteSpace=wrap;html=1;align=center;fontSize=12;" parent="1" vertex="1">
                    <mxGeometry x="720" y="295" width="80" height="70" as="geometry"/>
                </mxCell>
                <mxCell id="544" value="Dimensione" style="swimlane;childLayout=stackLayout;horizontal=1;startSize=30;horizontalStack=0;rounded=1;fontSize=12;fontStyle=0;strokeWidth=2;resizeParent=0;resizeLast=1;shadow=0;dashed=0;align=center;fillColor=#1ba1e2;fontColor=#ffffff;strokeColor=#006EAF;" parent="1" vertex="1">
                    <mxGeometry x="515" y="803.75" width="115" height="120" as="geometry"/>
                </mxCell>
                <mxCell id="545" value="+ PK: Id&#10;+ Dim x&#10;+ Dim y&#10;+ Dim z&#10;+ Status" style="align=left;strokeColor=none;fillColor=none;spacingLeft=4;fontSize=12;verticalAlign=top;resizable=0;rotatable=0;part=1;" parent="544" vertex="1">
                    <mxGeometry y="30" width="115" height="90" as="geometry"/>
                </mxCell>
                <mxCell id="546" style="edgeStyle=none;html=1;exitX=0.5;exitY=0;exitDx=0;exitDy=0;entryX=0.75;entryY=1;entryDx=0;entryDy=0;endArrow=none;endFill=0;fontSize=12;" parent="1" source="548" target="523" edge="1">
                    <mxGeometry relative="1" as="geometry"/>
                </mxCell>
                <mxCell id="547" style="edgeStyle=none;html=1;exitX=1;exitY=0.5;exitDx=0;exitDy=0;entryX=0;entryY=0;entryDx=0;entryDy=0;endArrow=none;endFill=0;fontSize=12;" parent="1" source="548" target="545" edge="1">
                    <mxGeometry relative="1" as="geometry"/>
                </mxCell>
                <mxCell id="548" value="Possiede" style="shape=rhombus;perimeter=rhombusPerimeter;whiteSpace=wrap;html=1;align=center;fontSize=12;" parent="1" vertex="1">
                    <mxGeometry x="401.25" y="800.63" width="76" height="63.75" as="geometry"/>
                </mxCell>
                <mxCell id="550" style="edgeStyle=none;html=1;exitX=1;exitY=0.5;exitDx=0;exitDy=0;entryX=0.5;entryY=1;entryDx=0;entryDy=0;startArrow=none;startFill=0;endArrow=none;endFill=0;fontSize=12;" parent="1" source="551" target="540" edge="1">
                    <mxGeometry relative="1" as="geometry">
                        <Array as="points">
                            <mxPoint x="785" y="540"/>
                        </Array>
                    </mxGeometry>
                </mxCell>
                <mxCell id="732" style="edgeStyle=none;html=1;exitX=0;exitY=0.5;exitDx=0;exitDy=0;endArrow=none;endFill=0;entryX=1;entryY=0.5;entryDx=0;entryDy=0;fontSize=12;" parent="1" source="551" target="727" edge="1">
                    <mxGeometry relative="1" as="geometry">
                        <mxPoint x="90" y="580" as="targetPoint"/>
                        <Array as="points">
                            <mxPoint x="280" y="540"/>
                            <mxPoint x="280" y="600"/>
                        </Array>
                    </mxGeometry>
                </mxCell>
                <mxCell id="551" value="Risiede" style="shape=rhombus;perimeter=rhombusPerimeter;whiteSpace=wrap;html=1;align=center;fontSize=12;" parent="1" vertex="1">
                    <mxGeometry x="470" y="507.5" width="80" height="65" as="geometry"/>
                </mxCell>
                <mxCell id="552" style="edgeStyle=none;html=1;exitX=0.5;exitY=0;exitDx=0;exitDy=0;entryX=0.5;entryY=1;entryDx=0;entryDy=0;startArrow=none;startFill=0;endArrow=none;endFill=0;fontSize=12;" parent="1" source="556" target="518" edge="1">
                    <mxGeometry relative="1" as="geometry"/>
                </mxCell>
                <mxCell id="554" style="edgeStyle=none;html=1;exitX=0;exitY=0.5;exitDx=0;exitDy=0;endArrow=none;endFill=0;entryX=1;entryY=0.25;entryDx=0;entryDy=0;fontSize=12;" parent="1" source="556" target="601" edge="1">
                    <mxGeometry relative="1" as="geometry">
                        <mxPoint x="-380" y="590" as="targetPoint"/>
                    </mxGeometry>
                </mxCell>
                <mxCell id="555" style="edgeStyle=none;html=1;exitX=1;exitY=0.5;exitDx=0;exitDy=0;endArrow=none;endFill=0;entryX=-0.016;entryY=0.416;entryDx=0;entryDy=0;entryPerimeter=0;fontSize=12;" parent="1" source="556" target="727" edge="1">
                    <mxGeometry relative="1" as="geometry">
                        <Array as="points"/>
                        <mxPoint x="-40" y="740" as="targetPoint"/>
                    </mxGeometry>
                </mxCell>
                <mxCell id="556" value="riferisce" style="shape=rhombus;perimeter=rhombusPerimeter;whiteSpace=wrap;html=1;align=center;fontSize=12;" parent="1" vertex="1">
                    <mxGeometry x="-242.5" y="565" width="65" height="60" as="geometry"/>
                </mxCell>
                <mxCell id="557" value="QuantitÃ " style="text;html=1;align=center;verticalAlign=middle;resizable=0;points=[];autosize=1;strokeColor=none;fillColor=none;fontSize=12;" parent="1" vertex="1">
                    <mxGeometry x="-215" y="665" width="70" height="30" as="geometry"/>
                </mxCell>
                <mxCell id="558" style="edgeStyle=none;html=1;endArrow=circle;endFill=0;exitX=0;exitY=1;exitDx=0;exitDy=0;entryX=0.494;entryY=-0.132;entryDx=0;entryDy=0;entryPerimeter=0;fontSize=12;" parent="1" source="556" target="559" edge="1">
                    <mxGeometry relative="1" as="geometry">
                        <mxPoint x="-300" y="640" as="targetPoint"/>
                        <mxPoint x="-16.5" y="560" as="sourcePoint"/>
                    </mxGeometry>
                </mxCell>
                <mxCell id="559" value="Prezzo" style="text;html=1;align=center;verticalAlign=middle;resizable=0;points=[];autosize=1;strokeColor=none;fillColor=none;fontSize=12;" parent="1" vertex="1">
                    <mxGeometry x="-305" y="665" width="60" height="30" as="geometry"/>
                </mxCell>
                <mxCell id="565" style="edgeStyle=none;html=1;exitX=0.5;exitY=1;exitDx=0;exitDy=0;entryX=0.576;entryY=0.008;entryDx=0;entryDy=0;entryPerimeter=0;endArrow=none;endFill=0;fontSize=12;" parent="1" source="567" target="499" edge="1">
                    <mxGeometry relative="1" as="geometry">
                        <mxPoint x="495.92999999999984" y="45.59999999999991" as="targetPoint"/>
                    </mxGeometry>
                </mxCell>
                <mxCell id="566" value="(1,1)" style="text;html=1;align=center;verticalAlign=middle;resizable=0;points=[];autosize=1;strokeColor=none;fillColor=none;fontSize=12;" parent="1" vertex="1">
                    <mxGeometry x="475" y="653.75" width="50" height="30" as="geometry"/>
                </mxCell>
                <mxCell id="567" value="Possiede" style="shape=rhombus;perimeter=rhombusPerimeter;whiteSpace=wrap;html=1;align=center;fontSize=12;" parent="1" vertex="1">
                    <mxGeometry x="368.38" y="17.5" width="65.75" height="52.5" as="geometry"/>
                </mxCell>
                <mxCell id="568" value="(0, N)" style="text;html=1;align=center;verticalAlign=middle;resizable=0;points=[];autosize=1;strokeColor=none;fillColor=none;fontSize=12;" parent="1" vertex="1">
                    <mxGeometry x="630" y="610" width="50" height="30" as="geometry"/>
                </mxCell>
                <mxCell id="569" value="(0, N)" style="text;html=1;align=center;verticalAlign=middle;resizable=0;points=[];autosize=1;strokeColor=none;fillColor=none;fontSize=12;" parent="1" vertex="1">
                    <mxGeometry x="710" y="695" width="50" height="30" as="geometry"/>
                </mxCell>
                <mxCell id="570" value="(1, 1)" style="text;html=1;align=center;verticalAlign=middle;resizable=0;points=[];autosize=1;strokeColor=none;fillColor=none;fontSize=12;" parent="1" vertex="1">
                    <mxGeometry x="710" y="935" width="50" height="30" as="geometry"/>
                </mxCell>
                <mxCell id="571" style="edgeStyle=none;html=1;entryX=0;entryY=0.25;entryDx=0;entryDy=0;startArrow=none;startFill=0;endArrow=none;endFill=0;exitX=1;exitY=0.5;exitDx=0;exitDy=0;fontSize=12;" parent="1" source="658" target="536" edge="1">
                    <mxGeometry relative="1" as="geometry">
                        <mxPoint x="310" y="910" as="sourcePoint"/>
                        <Array as="points"/>
                    </mxGeometry>
                </mxCell>
                <mxCell id="572" value="(0, N)" style="text;html=1;strokeColor=none;fillColor=none;align=center;verticalAlign=middle;whiteSpace=wrap;rounded=0;fontSize=12;" parent="1" vertex="1">
                    <mxGeometry x="470" y="162.49999999999994" width="60" height="30" as="geometry"/>
                </mxCell>
                <mxCell id="573" value="Claim" style="swimlane;childLayout=stackLayout;horizontal=1;startSize=30;horizontalStack=0;rounded=1;fontSize=12;fontStyle=0;strokeWidth=2;resizeParent=0;resizeLast=1;shadow=0;dashed=0;align=center;fillColor=#1ba1e2;fontColor=#ffffff;strokeColor=#006EAF;" parent="1" vertex="1">
                    <mxGeometry x="325" y="-110" width="152.5" height="100" as="geometry"/>
                </mxCell>
                <mxCell id="574" value="+ Id&#10;+ Descrizione&#10;+ Conto&#10;+ Status" style="align=left;strokeColor=none;fillColor=none;spacingLeft=4;fontSize=12;verticalAlign=top;resizable=0;rotatable=0;part=1;" parent="573" vertex="1">
                    <mxGeometry y="30" width="152.5" height="70" as="geometry"/>
                </mxCell>
                <mxCell id="578" style="edgeStyle=none;html=1;exitX=0.5;exitY=0;exitDx=0;exitDy=0;entryX=0.5;entryY=1;entryDx=0;entryDy=0;endArrow=none;endFill=0;fontSize=12;" parent="1" source="567" target="574" edge="1">
                    <mxGeometry relative="1" as="geometry"/>
                </mxCell>
                <mxCell id="579" value="(1,1)" style="text;html=1;strokeColor=none;fillColor=none;align=center;verticalAlign=middle;whiteSpace=wrap;rounded=0;fontSize=12;" parent="1" vertex="1">
                    <mxGeometry x="760" y="389.99999999999994" width="60" height="30" as="geometry"/>
                </mxCell>
                <mxCell id="580" value="(0, N)" style="text;html=1;align=center;verticalAlign=middle;resizable=0;points=[];autosize=1;strokeColor=none;fillColor=none;fontSize=12;" parent="1" vertex="1">
                    <mxGeometry x="780" y="515" width="50" height="30" as="geometry"/>
                </mxCell>
                <mxCell id="581" value="(1,1)" style="text;html=1;strokeColor=none;fillColor=none;align=center;verticalAlign=middle;whiteSpace=wrap;rounded=0;fontSize=12;" parent="1" vertex="1">
                    <mxGeometry x="391" y="763.75" width="49" height="20" as="geometry"/>
                </mxCell>
                <mxCell id="582" value="(1,1)" style="text;html=1;strokeColor=none;fillColor=none;align=center;verticalAlign=middle;whiteSpace=wrap;rounded=0;fontSize=12;" parent="1" vertex="1">
                    <mxGeometry x="465" y="838.75" width="55" height="20" as="geometry"/>
                </mxCell>
                <mxCell id="583" value="(0, N)" style="text;html=1;align=center;verticalAlign=middle;resizable=0;points=[];autosize=1;strokeColor=none;fillColor=none;fontSize=12;" parent="1" vertex="1">
                    <mxGeometry x="630" y="985" width="50" height="30" as="geometry"/>
                </mxCell>
                <mxCell id="584" value="(1, 1)" style="text;html=1;align=center;verticalAlign=middle;resizable=0;points=[];autosize=1;strokeColor=none;fillColor=none;fontSize=12;" parent="1" vertex="1">
                    <mxGeometry x="486" y="990" width="50" height="30" as="geometry"/>
                </mxCell>
                <mxCell id="585" value="(1,N)" style="text;html=1;strokeColor=none;fillColor=none;align=center;verticalAlign=middle;whiteSpace=wrap;rounded=0;fontSize=12;" parent="1" vertex="1">
                    <mxGeometry x="620" y="164.99999999999994" width="60" height="30" as="geometry"/>
                </mxCell>
                <mxCell id="600" value="Dettaglio ordine" style="swimlane;childLayout=stackLayout;horizontal=1;startSize=30;horizontalStack=0;rounded=1;fontSize=12;fontStyle=0;strokeWidth=2;resizeParent=0;resizeLast=1;shadow=0;dashed=0;align=center;fillColor=#1ba1e2;fontColor=#ffffff;strokeColor=#006EAF;" parent="1" vertex="1">
                    <mxGeometry x="-510" y="550" width="130" height="90" as="geometry"/>
                </mxCell>
                <mxCell id="601" value="+ PK: Id&#10;+ QuantitÃ &#10;+ Status&#10;&#10;" style="align=left;strokeColor=none;fillColor=none;spacingLeft=4;fontSize=12;verticalAlign=top;resizable=0;rotatable=0;part=1;" parent="600" vertex="1">
                    <mxGeometry y="30" width="130" height="60" as="geometry"/>
                </mxCell>
                <mxCell id="714" style="edgeStyle=none;html=1;exitX=0.5;exitY=1;exitDx=0;exitDy=0;entryX=0.5;entryY=0;entryDx=0;entryDy=0;endArrow=none;endFill=0;fontSize=12;" parent="1" source="604" target="600" edge="1">
                    <mxGeometry relative="1" as="geometry">
                        <Array as="points">
                            <mxPoint x="-395" y="520"/>
                            <mxPoint x="-445" y="520"/>
                        </Array>
                    </mxGeometry>
                </mxCell>
                <mxCell id="604" value="contiene" style="rhombus;whiteSpace=wrap;html=1;fontSize=12;" parent="1" vertex="1">
                    <mxGeometry x="-435" y="400" width="80" height="80" as="geometry"/>
                </mxCell>
                <mxCell id="606" value="(1-1)" style="text;html=1;align=center;verticalAlign=middle;resizable=0;points=[];autosize=1;strokeColor=none;fillColor=none;fontSize=12;" parent="1" vertex="1">
                    <mxGeometry x="-505" y="525" width="50" height="30" as="geometry"/>
                </mxCell>
                <mxCell id="607" value="(1, 1)" style="text;html=1;align=center;verticalAlign=middle;resizable=0;points=[];autosize=1;strokeColor=none;fillColor=none;fontSize=12;" parent="1" vertex="1">
                    <mxGeometry x="-385" y="555" width="50" height="30" as="geometry"/>
                </mxCell>
                <mxCell id="609" value="(0, N)" style="text;html=1;align=center;verticalAlign=middle;resizable=0;points=[];autosize=1;strokeColor=none;fillColor=none;fontSize=12;" parent="1" vertex="1">
                    <mxGeometry x="-210" y="475" width="50" height="30" as="geometry"/>
                </mxCell>
                <mxCell id="611" value="(1, N)" style="text;html=1;align=center;verticalAlign=middle;resizable=0;points=[];autosize=1;strokeColor=none;fillColor=none;fontSize=12;" parent="1" vertex="1">
                    <mxGeometry x="255" y="688.75" width="50" height="30" as="geometry"/>
                </mxCell>
                <mxCell id="614" value="(1,1)" style="text;html=1;strokeColor=none;fillColor=none;align=center;verticalAlign=middle;whiteSpace=wrap;rounded=0;fontSize=12;" parent="1" vertex="1">
                    <mxGeometry x="40" y="648.75" width="50" height="17.5" as="geometry"/>
                </mxCell>
                <mxCell id="615" value="(0,N)" style="text;html=1;strokeColor=none;fillColor=none;align=center;verticalAlign=middle;whiteSpace=wrap;rounded=0;fontSize=12;" parent="1" vertex="1">
                    <mxGeometry x="275" y="995" width="60" height="30" as="geometry"/>
                </mxCell>
                <mxCell id="616" value="(0, N)" style="text;html=1;align=center;verticalAlign=middle;resizable=0;points=[];autosize=1;strokeColor=none;fillColor=none;fontSize=12;" parent="1" vertex="1">
                    <mxGeometry x="230" y="225" width="50" height="30" as="geometry"/>
                </mxCell>
                <mxCell id="619" value="(1, 1)" style="text;html=1;align=center;verticalAlign=middle;resizable=0;points=[];autosize=1;strokeColor=none;fillColor=none;fontSize=12;" parent="1" vertex="1">
                    <mxGeometry x="-135" y="410" width="50" height="30" as="geometry"/>
                </mxCell>
                <mxCell id="620" value="(1,1)" style="text;html=1;strokeColor=none;fillColor=none;align=center;verticalAlign=middle;whiteSpace=wrap;rounded=0;fontSize=12;" parent="1" vertex="1">
                    <mxGeometry x="760" y="254.99999999999994" width="60" height="30" as="geometry"/>
                </mxCell>
                <mxCell id="621" value="Raccolta" style="swimlane;childLayout=stackLayout;horizontal=1;startSize=30;horizontalStack=0;rounded=1;fontSize=12;fontStyle=0;strokeWidth=2;resizeParent=0;resizeLast=1;shadow=0;dashed=0;align=center;fillColor=#1ba1e2;fontColor=#ffffff;strokeColor=#006EAF;" parent="1" vertex="1">
                    <mxGeometry x="480" y="340" width="160" height="90" as="geometry"/>
                </mxCell>
                <mxCell id="622" value="+ PK: Id&#10;+ Tipo raccolta&#10;+ Status" style="align=left;strokeColor=none;fillColor=none;spacingLeft=4;fontSize=12;verticalAlign=top;resizable=0;rotatable=0;part=1;" parent="621" vertex="1">
                    <mxGeometry y="30" width="160" height="60" as="geometry"/>
                </mxCell>
                <mxCell id="623" style="edgeStyle=none;html=1;exitX=0.5;exitY=0;exitDx=0;exitDy=0;entryX=0.445;entryY=1.013;entryDx=0;entryDy=0;entryPerimeter=0;startArrow=none;startFill=0;endArrow=none;endFill=0;fontSize=12;" parent="1" source="625" target="500" edge="1">
                    <mxGeometry relative="1" as="geometry"/>
                </mxCell>
                <mxCell id="624" style="edgeStyle=none;html=1;exitX=0.5;exitY=1;exitDx=0;exitDy=0;entryX=0;entryY=0;entryDx=0;entryDy=0;startArrow=none;startFill=0;endArrow=none;endFill=0;fontSize=12;" parent="1" source="625" target="622" edge="1">
                    <mxGeometry relative="1" as="geometry">
                        <Array as="points">
                            <mxPoint x="382" y="370"/>
                        </Array>
                    </mxGeometry>
                </mxCell>
                <mxCell id="625" value="Possiede" style="shape=rhombus;perimeter=rhombusPerimeter;whiteSpace=wrap;html=1;align=center;fontSize=12;" parent="1" vertex="1">
                    <mxGeometry x="345" y="277.5" width="75" height="72.5" as="geometry"/>
                </mxCell>
                <mxCell id="734" style="edgeStyle=none;html=1;exitX=0.5;exitY=1;exitDx=0;exitDy=0;endArrow=none;endFill=0;entryX=0.25;entryY=0;entryDx=0;entryDy=0;fontSize=12;" parent="1" source="627" target="522" edge="1">
                    <mxGeometry relative="1" as="geometry">
                        <Array as="points">
                            <mxPoint x="375" y="580"/>
                            <mxPoint x="353" y="580"/>
                        </Array>
                        <mxPoint x="360" y="640" as="targetPoint"/>
                    </mxGeometry>
                </mxCell>
                <mxCell id="627" value="contiene" style="rhombus;whiteSpace=wrap;html=1;fontSize=12;" parent="1" vertex="1">
                    <mxGeometry x="335" y="401.25" width="79" height="78.75" as="geometry"/>
                </mxCell>
                <mxCell id="628" style="edgeStyle=none;html=1;exitX=0;exitY=0.5;exitDx=0;exitDy=0;entryX=0.5;entryY=0;entryDx=0;entryDy=0;startArrow=none;startFill=0;endArrow=none;endFill=0;fontSize=12;" parent="1" source="622" target="627" edge="1">
                    <mxGeometry relative="1" as="geometry">
                        <Array as="points"/>
                    </mxGeometry>
                </mxCell>
                <mxCell id="629" value="(1, 1)" style="text;html=1;align=center;verticalAlign=middle;resizable=0;points=[];autosize=1;strokeColor=none;fillColor=none;fontSize=12;" parent="1" vertex="1">
                    <mxGeometry x="429.13" y="340" width="50" height="30" as="geometry"/>
                </mxCell>
                <mxCell id="631" value="(0,N)" style="text;html=1;align=center;verticalAlign=middle;resizable=0;points=[];autosize=1;strokeColor=none;fillColor=none;fontSize=12;" parent="1" vertex="1">
                    <mxGeometry x="386" y="255" width="50" height="30" as="geometry"/>
                </mxCell>
                <mxCell id="632" value="(0, N)" style="text;html=1;align=center;verticalAlign=middle;resizable=0;points=[];autosize=1;strokeColor=none;fillColor=none;fontSize=12;" parent="1" vertex="1">
                    <mxGeometry x="420" y="395" width="50" height="30" as="geometry"/>
                </mxCell>
                <mxCell id="633" value="(1, 1)" style="text;html=1;align=center;verticalAlign=middle;resizable=0;points=[];autosize=1;strokeColor=none;fillColor=none;fontSize=12;" parent="1" vertex="1">
                    <mxGeometry x="27.5" y="171.25" width="50" height="30" as="geometry"/>
                </mxCell>
                <mxCell id="634" value="(0, N)" style="text;html=1;strokeColor=none;fillColor=none;align=center;verticalAlign=middle;whiteSpace=wrap;rounded=0;fontSize=12;" parent="1" vertex="1">
                    <mxGeometry x="202.5" y="164.99999999999994" width="60" height="30" as="geometry"/>
                </mxCell>
                <mxCell id="635" value="(1, 1)" style="text;html=1;align=center;verticalAlign=middle;resizable=0;points=[];autosize=1;strokeColor=none;fillColor=none;fontSize=12;" parent="1" vertex="1">
                    <mxGeometry x="401.25" y="95" width="50" height="30" as="geometry"/>
                </mxCell>
                <mxCell id="636" value="(0, N)" style="text;html=1;align=center;verticalAlign=middle;resizable=0;points=[];autosize=1;strokeColor=none;fillColor=none;fontSize=12;" parent="1" vertex="1">
                    <mxGeometry x="401.25" y="-15" width="50" height="30" as="geometry"/>
                </mxCell>
                <mxCell id="637" value="(1, 1)" style="text;html=1;align=center;verticalAlign=middle;resizable=0;points=[];autosize=1;strokeColor=none;fillColor=none;fontSize=12;" parent="1" vertex="1">
                    <mxGeometry x="-15" y="288.75" width="50" height="30" as="geometry"/>
                </mxCell>
                <mxCell id="638" value="(1,N)" style="text;html=1;strokeColor=none;fillColor=none;align=center;verticalAlign=middle;whiteSpace=wrap;rounded=0;fontSize=12;" parent="1" vertex="1">
                    <mxGeometry x="-50" y="269.99999999999994" width="60" height="30" as="geometry"/>
                </mxCell>
                <mxCell id="642" value="(0, N)" style="text;html=1;align=center;verticalAlign=middle;resizable=0;points=[];autosize=1;strokeColor=none;fillColor=none;fontSize=12;" parent="1" vertex="1">
                    <mxGeometry x="-180" y="162.5" width="50" height="30" as="geometry"/>
                </mxCell>
                <mxCell id="643" style="edgeStyle=none;html=1;endArrow=none;endFill=0;fontSize=12;" parent="1" source="644" edge="1">
                    <mxGeometry relative="1" as="geometry">
                        <mxPoint x="-540" y="80" as="targetPoint"/>
                    </mxGeometry>
                </mxCell>
                <mxCell id="644" value="Scrive" style="rhombus;whiteSpace=wrap;html=1;fontSize=12;" parent="1" vertex="1">
                    <mxGeometry x="-240" y="40" width="120" height="80" as="geometry"/>
                </mxCell>
                <mxCell id="645" style="edgeStyle=none;html=1;endArrow=none;endFill=0;entryX=0.5;entryY=0;entryDx=0;entryDy=0;fontSize=12;" parent="1" target="649" edge="1">
                    <mxGeometry relative="1" as="geometry">
                        <mxPoint x="-760" y="550" as="targetPoint"/>
                        <Array as="points">
                            <mxPoint x="-780" y="75"/>
                        </Array>
                        <mxPoint x="-700" y="75" as="sourcePoint"/>
                    </mxGeometry>
                </mxCell>
                <mxCell id="646" value="Recensione" style="swimlane;childLayout=stackLayout;horizontal=1;startSize=30;horizontalStack=0;rounded=1;fontSize=12;fontStyle=0;strokeWidth=2;resizeParent=0;resizeLast=1;shadow=0;dashed=0;align=center;fillColor=#1ba1e2;fontColor=#ffffff;strokeColor=#006EAF;" parent="1" vertex="1">
                    <mxGeometry x="-700" y="30" width="160" height="100" as="geometry"/>
                </mxCell>
                <mxCell id="647" value="+ PK: Id&#10;+ Valutazione&#10;+ Commento&#10;+ Status&#10;&#10;" style="align=left;strokeColor=none;fillColor=none;spacingLeft=4;fontSize=12;verticalAlign=top;resizable=0;rotatable=0;part=1;" parent="646" vertex="1">
                    <mxGeometry y="30" width="160" height="70" as="geometry"/>
                </mxCell>
                <mxCell id="648" style="edgeStyle=none;html=1;entryX=0;entryY=0.25;entryDx=0;entryDy=0;endArrow=none;endFill=0;fontSize=12;" parent="1" source="649" target="601" edge="1">
                    <mxGeometry relative="1" as="geometry"/>
                </mxCell>
                <mxCell id="649" value="riferisce" style="rhombus;whiteSpace=wrap;html=1;fontSize=12;" parent="1" vertex="1">
                    <mxGeometry x="-840" y="555" width="120" height="80" as="geometry"/>
                </mxCell>
                <mxCell id="650" value="(0, N)" style="text;html=1;align=center;verticalAlign=middle;resizable=0;points=[];autosize=1;strokeColor=none;fillColor=none;fontSize=12;" parent="1" vertex="1">
                    <mxGeometry x="305" y="85" width="50" height="30" as="geometry"/>
                </mxCell>
                <mxCell id="651" value="(1, 1)" style="text;html=1;align=center;verticalAlign=middle;resizable=0;points=[];autosize=1;strokeColor=none;fillColor=none;fontSize=12;" parent="1" vertex="1">
                    <mxGeometry x="-545" y="45" width="50" height="30" as="geometry"/>
                </mxCell>
                <mxCell id="652" value="(1, 1)" style="text;html=1;align=center;verticalAlign=middle;resizable=0;points=[];autosize=1;strokeColor=none;fillColor=none;fontSize=12;" parent="1" vertex="1">
                    <mxGeometry x="-755" y="45" width="50" height="30" as="geometry"/>
                </mxCell>
                <mxCell id="653" value="(0, N)" style="text;html=1;align=center;verticalAlign=middle;resizable=0;points=[];autosize=1;strokeColor=none;fillColor=none;fontSize=12;" parent="1" vertex="1">
                    <mxGeometry x="-560" y="565" width="50" height="30" as="geometry"/>
                </mxCell>
                <mxCell id="654" style="edgeStyle=none;html=1;endArrow=none;endFill=0;entryX=0.5;entryY=1;entryDx=0;entryDy=0;exitX=0.75;exitY=0;exitDx=0;exitDy=0;fontSize=12;" parent="1" source="726" target="663" edge="1">
                    <mxGeometry relative="1" as="geometry">
                        <mxPoint x="130" y="530" as="targetPoint"/>
                        <Array as="points">
                            <mxPoint x="28" y="470"/>
                            <mxPoint x="265" y="470"/>
                        </Array>
                        <mxPoint x="117.6078431372548" y="700" as="sourcePoint"/>
                    </mxGeometry>
                </mxCell>
                <mxCell id="657" style="edgeStyle=none;html=1;exitX=0.5;exitY=0;exitDx=0;exitDy=0;entryX=0.5;entryY=1;entryDx=0;entryDy=0;endArrow=none;endFill=0;fontSize=12;" parent="1" source="658" target="726" edge="1">
                    <mxGeometry relative="1" as="geometry">
                        <Array as="points"/>
                        <mxPoint x="117.5" y="810" as="targetPoint"/>
                    </mxGeometry>
                </mxCell>
                <mxCell id="658" value="Configurazione" style="shape=rhombus;perimeter=rhombusPerimeter;whiteSpace=wrap;html=1;align=center;fontSize=12;" parent="1" vertex="1">
                    <mxGeometry x="-65.62" y="995" width="101.25" height="65" as="geometry"/>
                </mxCell>
                <mxCell id="659" value="(1, N)" style="text;html=1;align=center;verticalAlign=middle;resizable=0;points=[];autosize=1;strokeColor=none;fillColor=none;fontSize=12;" parent="1" vertex="1">
                    <mxGeometry x="-65.62" y="647.5" width="50" height="30" as="geometry"/>
                </mxCell>
                <mxCell id="660" value="(1, N)" style="text;html=1;align=center;verticalAlign=middle;resizable=0;points=[];autosize=1;strokeColor=none;fillColor=none;fontSize=12;" parent="1" vertex="1">
                    <mxGeometry x="-160" y="572.5" width="50" height="30" as="geometry"/>
                </mxCell>
                <mxCell id="661" value="(0, N)" style="text;html=1;align=center;verticalAlign=middle;resizable=0;points=[];autosize=1;strokeColor=none;fillColor=none;fontSize=12;" parent="1" vertex="1">
                    <mxGeometry x="305" y="618.75" width="50" height="30" as="geometry"/>
                </mxCell>
                <mxCell id="662" style="edgeStyle=none;html=1;endArrow=circle;endFill=0;exitX=0.635;exitY=0.892;exitDx=0;exitDy=0;exitPerimeter=0;entryX=0.497;entryY=-0.132;entryDx=0;entryDy=0;entryPerimeter=0;fontSize=12;" parent="1" source="556" target="557" edge="1">
                    <mxGeometry relative="1" as="geometry">
                        <mxPoint x="-190" y="670" as="targetPoint"/>
                        <mxPoint x="-183.75" y="580" as="sourcePoint"/>
                    </mxGeometry>
                </mxCell>
                <mxCell id="663" value="Amministra" style="shape=rhombus;perimeter=rhombusPerimeter;whiteSpace=wrap;html=1;align=center;fontSize=12;" parent="1" vertex="1">
                    <mxGeometry x="225" y="380" width="80" height="60" as="geometry"/>
                </mxCell>
                <mxCell id="664" value="(0, N)" style="text;html=1;align=center;verticalAlign=middle;resizable=0;points=[];autosize=1;strokeColor=none;fillColor=none;fontSize=12;" parent="1" vertex="1">
                    <mxGeometry x="280" y="260" width="50" height="30" as="geometry"/>
                </mxCell>
                <mxCell id="665" value="(1, 1)" style="text;html=1;align=center;verticalAlign=middle;resizable=0;points=[];autosize=1;strokeColor=none;fillColor=none;fontSize=12;" parent="1" vertex="1">
                    <mxGeometry x="-20" y="502.5" width="50" height="30" as="geometry"/>
                </mxCell>
                <mxCell id="666" style="edgeStyle=none;html=1;exitX=0;exitY=0.75;exitDx=0;exitDy=0;endArrow=none;endFill=0;fontSize=12;" parent="1" source="667" edge="1">
                    <mxGeometry relative="1" as="geometry">
                        <mxPoint x="610" y="-39.33333333333303" as="targetPoint"/>
                    </mxGeometry>
                </mxCell>
                <mxCell id="667" value="Abbonamento &lt;br style=&quot;font-size: 12px;&quot;&gt;Cliente" style="whiteSpace=wrap;html=1;fillColor=#1ba1e2;fontColor=#ffffff;strokeColor=#006EAF;fontSize=12;" parent="1" vertex="1">
                    <mxGeometry x="685" y="-83.75" width="130" height="60" as="geometry"/>
                </mxCell>
                <mxCell id="668" style="edgeStyle=none;html=1;exitX=0;exitY=0.75;exitDx=0;exitDy=0;endArrow=none;endFill=0;fontSize=12;" parent="1" source="669" edge="1">
                    <mxGeometry relative="1" as="geometry">
                        <mxPoint x="610" y="10" as="targetPoint"/>
                        <Array as="points">
                            <mxPoint x="610" y="55"/>
                        </Array>
                    </mxGeometry>
                </mxCell>
                <mxCell id="669" value="Abbonamento Venditore" style="whiteSpace=wrap;html=1;fillColor=#1ba1e2;fontColor=#ffffff;strokeColor=#006EAF;fontSize=12;" parent="1" vertex="1">
                    <mxGeometry x="685" y="10" width="130" height="60" as="geometry"/>
                </mxCell>
                <mxCell id="670" style="edgeStyle=none;html=1;exitX=0;exitY=0.75;exitDx=0;exitDy=0;endArrow=none;endFill=0;fontSize=12;" parent="1" source="671" edge="1">
                    <mxGeometry relative="1" as="geometry">
                        <mxPoint x="610" y="-120" as="targetPoint"/>
                        <Array as="points">
                            <mxPoint x="610" y="-209"/>
                        </Array>
                    </mxGeometry>
                </mxCell>
                <mxCell id="671" value="&lt;br style=&quot;font-size: 12px;&quot;&gt;Cliente" style="whiteSpace=wrap;html=1;fillColor=#1ba1e2;fontColor=#ffffff;strokeColor=#006EAF;fontSize=12;" parent="1" vertex="1">
                    <mxGeometry x="685" y="-253.75" width="130" height="60" as="geometry"/>
                </mxCell>
                <mxCell id="672" style="edgeStyle=none;html=1;exitX=0;exitY=0.5;exitDx=0;exitDy=0;endArrow=none;endFill=0;fontSize=12;" parent="1" source="673" edge="1">
                    <mxGeometry relative="1" as="geometry">
                        <mxPoint x="610" y="-70" as="targetPoint"/>
                        <Array as="points">
                            <mxPoint x="650" y="-134"/>
                            <mxPoint x="650" y="-70"/>
                        </Array>
                    </mxGeometry>
                </mxCell>
                <mxCell id="673" value="Venditore" style="whiteSpace=wrap;html=1;fillColor=#1ba1e2;fontColor=#ffffff;strokeColor=#006EAF;fontSize=12;" parent="1" vertex="1">
                    <mxGeometry x="685" y="-163.75" width="130" height="60" as="geometry"/>
                </mxCell>
                <mxCell id="674" value="" style="shape=singleArrow;whiteSpace=wrap;html=1;direction=west;arrowWidth=0.28395061728394666;arrowSize=0.4277777777777809;fillColor=#1ba1e2;fontColor=#ffffff;strokeColor=#006EAF;fontSize=12;" parent="1" vertex="1">
                    <mxGeometry x="497.5" y="-82.5" width="82.5" height="52.5" as="geometry"/>
                </mxCell>
                <mxCell id="675" value="" style="endArrow=none;html=1;fontSize=12;" parent="1" edge="1">
                    <mxGeometry width="50" height="50" relative="1" as="geometry">
                        <mxPoint x="610" y="10" as="sourcePoint"/>
                        <mxPoint x="610" y="-120" as="targetPoint"/>
                    </mxGeometry>
                </mxCell>
                <mxCell id="676" value="(t, e)" style="text;html=1;align=center;verticalAlign=middle;resizable=0;points=[];autosize=1;strokeColor=none;fillColor=none;fontSize=12;" parent="1" vertex="1">
                    <mxGeometry x="545" y="-35" width="50" height="30" as="geometry"/>
                </mxCell>
                <mxCell id="677" style="edgeStyle=none;html=1;endArrow=circle;endFill=0;exitX=0.5;exitY=1;exitDx=0;exitDy=0;entryX=0.158;entryY=-0.037;entryDx=0;entryDy=0;entryPerimeter=0;fontSize=12;" parent="1" source="551" target="680" edge="1">
                    <mxGeometry relative="1" as="geometry">
                        <mxPoint x="550" y="582.5" as="targetPoint"/>
                        <mxPoint x="520" y="563.7" as="sourcePoint"/>
                    </mxGeometry>
                </mxCell>
                <mxCell id="678" style="edgeStyle=none;html=1;endArrow=circle;endFill=0;exitX=0;exitY=1;exitDx=0;exitDy=0;fontSize=12;" parent="1" source="551" edge="1">
                    <mxGeometry relative="1" as="geometry">
                        <mxPoint x="470" y="582.5" as="targetPoint"/>
                        <mxPoint x="530" y="573.6999999999998" as="sourcePoint"/>
                    </mxGeometry>
                </mxCell>
                <mxCell id="679" value="Data_inizio" style="text;html=1;align=center;verticalAlign=middle;resizable=0;points=[];autosize=1;strokeColor=none;fillColor=none;fontSize=12;" parent="1" vertex="1">
                    <mxGeometry x="420" y="582.5" width="80" height="30" as="geometry"/>
                </mxCell>
                <mxCell id="680" value="Data_fine" style="text;html=1;align=center;verticalAlign=middle;resizable=0;points=[];autosize=1;strokeColor=none;fillColor=none;fontSize=12;" parent="1" vertex="1">
                    <mxGeometry x="497.5" y="602.5" width="70" height="30" as="geometry"/>
                </mxCell>
                <mxCell id="681" style="edgeStyle=none;html=1;endArrow=circle;endFill=0;exitX=1;exitY=1;exitDx=0;exitDy=0;fontSize=12;" parent="1" source="551" edge="1">
                    <mxGeometry relative="1" as="geometry">
                        <mxPoint x="560" y="582.5" as="targetPoint"/>
                        <mxPoint x="550" y="558.61" as="sourcePoint"/>
                    </mxGeometry>
                </mxCell>
                <mxCell id="682" value="Tassa" style="text;html=1;align=center;verticalAlign=middle;resizable=0;points=[];autosize=1;strokeColor=none;fillColor=none;fontSize=12;" parent="1" vertex="1">
                    <mxGeometry x="555" y="577.5" width="50" height="30" as="geometry"/>
                </mxCell>
                <mxCell id="684" value="Metodo Spedizione" style="swimlane;childLayout=stackLayout;horizontal=1;startSize=30;horizontalStack=0;rounded=1;fontSize=12;fontStyle=0;strokeWidth=2;resizeParent=0;resizeLast=1;shadow=0;dashed=0;align=center;fillColor=#1ba1e2;fontColor=#ffffff;strokeColor=#006EAF;" parent="1" vertex="1">
                    <mxGeometry x="-1050" y="415" width="160" height="100" as="geometry">
                        <mxRectangle x="-1050" y="415" width="160" height="30" as="alternateBounds"/>
                    </mxGeometry>
                </mxCell>
                <mxCell id="685" value="+ PK: IdÂ &#10;+ Nome&#10;+ Prezzo&#10;+ Status" style="align=left;strokeColor=none;fillColor=none;spacingLeft=4;fontSize=12;verticalAlign=top;resizable=0;rotatable=0;part=1;" parent="684" vertex="1">
                    <mxGeometry y="30" width="160" height="70" as="geometry"/>
                </mxCell>
                <mxCell id="689" style="edgeStyle=none;html=1;exitX=1;exitY=0.5;exitDx=0;exitDy=0;startArrow=none;startFill=0;endArrow=none;endFill=0;fontSize=12;" parent="1" source="691" edge="1">
                    <mxGeometry relative="1" as="geometry">
                        <mxPoint x="-890" y="465" as="targetPoint"/>
                    </mxGeometry>
                </mxCell>
                <mxCell id="690" style="edgeStyle=none;html=1;startArrow=none;startFill=0;endArrow=none;endFill=0;entryX=0;entryY=0.75;entryDx=0;entryDy=0;exitX=1;exitY=0.5;exitDx=0;exitDy=0;fontSize=12;" parent="1" source="691" target="693" edge="1">
                    <mxGeometry relative="1" as="geometry">
                        <mxPoint x="-625" y="380" as="targetPoint"/>
                        <Array as="points">
                            <mxPoint x="-530" y="464"/>
                            <mxPoint x="-530" y="329"/>
                        </Array>
                        <mxPoint x="-580" y="470" as="sourcePoint"/>
                    </mxGeometry>
                </mxCell>
                <mxCell id="691" value="Possiede" style="shape=rhombus;perimeter=rhombusPerimeter;whiteSpace=wrap;html=1;align=center;fontSize=12;" parent="1" vertex="1">
                    <mxGeometry x="-660" y="440" width="80" height="47.5" as="geometry"/>
                </mxCell>
                <mxCell id="692" value="Ordine" style="swimlane;childLayout=stackLayout;horizontal=1;startSize=30;horizontalStack=0;rounded=1;fontSize=12;fontStyle=0;strokeWidth=2;resizeParent=0;resizeLast=1;shadow=0;dashed=0;align=center;fillColor=#1ba1e2;fontColor=#ffffff;strokeColor=#006EAF;" parent="1" vertex="1">
                    <mxGeometry x="-475" y="235" width="160" height="115" as="geometry"/>
                </mxCell>
                <mxCell id="693" value="+ PK: Id&#10;+ Data ordine&#10;+ Totale ordine&#10;+ Data ordine&#10;+ Status" style="align=left;strokeColor=none;fillColor=none;spacingLeft=4;fontSize=12;verticalAlign=top;resizable=0;rotatable=0;part=1;" parent="692" vertex="1">
                    <mxGeometry y="30" width="160" height="85" as="geometry"/>
                </mxCell>
                <mxCell id="694" value="Status Ordine" style="swimlane;childLayout=stackLayout;horizontal=1;startSize=30;horizontalStack=0;rounded=1;fontSize=12;fontStyle=0;strokeWidth=2;resizeParent=0;resizeLast=1;shadow=0;dashed=0;align=center;fillColor=#1ba1e2;fontColor=#ffffff;strokeColor=#006EAF;" parent="1" vertex="1">
                    <mxGeometry x="-950" y="230" width="100" height="80" as="geometry"/>
                </mxCell>
                <mxCell id="695" value="+ PK: Id&#10;+ Descrizione&#10;+ Status&#10;" style="align=left;strokeColor=none;fillColor=none;spacingLeft=4;fontSize=12;verticalAlign=top;resizable=0;rotatable=0;part=1;" parent="694" vertex="1">
                    <mxGeometry y="30" width="100" height="50" as="geometry"/>
                </mxCell>
                <mxCell id="696" style="edgeStyle=none;html=1;entryX=0.5;entryY=1;entryDx=0;entryDy=0;endArrow=none;endFill=0;exitX=0.5;exitY=0;exitDx=0;exitDy=0;fontSize=12;" parent="1" source="604" target="693" edge="1">
                    <mxGeometry relative="1" as="geometry">
                        <mxPoint x="-660" y="500" as="sourcePoint"/>
                    </mxGeometry>
                </mxCell>
                <mxCell id="698" value="(1-1)" style="text;html=1;align=center;verticalAlign=middle;resizable=0;points=[];autosize=1;strokeColor=none;fillColor=none;fontSize=12;" parent="1" vertex="1">
                    <mxGeometry x="-855" y="255" width="50" height="30" as="geometry"/>
                </mxCell>
                <mxCell id="699" value="(1-1)" style="text;html=1;align=center;verticalAlign=middle;resizable=0;points=[];autosize=1;strokeColor=none;fillColor=none;fontSize=12;" parent="1" vertex="1">
                    <mxGeometry x="-895" y="436.25" width="50" height="30" as="geometry"/>
                </mxCell>
                <mxCell id="700" value="(1, N)" style="text;html=1;align=center;verticalAlign=middle;resizable=0;points=[];autosize=1;strokeColor=none;fillColor=none;fontSize=12;" parent="1" vertex="1">
                    <mxGeometry x="-530" y="260" width="50" height="30" as="geometry"/>
                </mxCell>
                <mxCell id="701" value="(1, 1)" style="text;html=1;align=center;verticalAlign=middle;resizable=0;points=[];autosize=1;strokeColor=none;fillColor=none;fontSize=12;" parent="1" vertex="1">
                    <mxGeometry x="-525" y="330" width="50" height="30" as="geometry"/>
                </mxCell>
                <mxCell id="715" value="(1, N)" style="text;html=1;align=center;verticalAlign=middle;resizable=0;points=[];autosize=1;strokeColor=none;fillColor=none;fontSize=12;" parent="1" vertex="1">
                    <mxGeometry x="-385" y="355" width="50" height="30" as="geometry"/>
                </mxCell>
                <mxCell id="716" style="edgeStyle=none;html=1;exitX=0;exitY=0.25;exitDx=0;exitDy=0;endArrow=none;endFill=0;entryX=1;entryY=0.5;entryDx=0;entryDy=0;fontSize=12;" parent="1" source="693" target="717" edge="1">
                    <mxGeometry relative="1" as="geometry">
                        <mxPoint x="-610" y="280" as="targetPoint"/>
                    </mxGeometry>
                </mxCell>
                <mxCell id="719" style="edgeStyle=none;html=1;exitX=0;exitY=0.5;exitDx=0;exitDy=0;entryX=1;entryY=0.5;entryDx=0;entryDy=0;endArrow=none;endFill=0;fontSize=12;" parent="1" source="717" target="695" edge="1">
                    <mxGeometry relative="1" as="geometry"/>
                </mxCell>
                <mxCell id="717" value="Possiede" style="rhombus;whiteSpace=wrap;html=1;fontSize=12;" parent="1" vertex="1">
                    <mxGeometry x="-690" y="255" width="80" height="60" as="geometry"/>
                </mxCell>
                <mxCell id="721" style="edgeStyle=none;html=1;exitX=0;exitY=0.25;exitDx=0;exitDy=0;endArrow=none;endFill=0;entryX=1;entryY=0.5;entryDx=0;entryDy=0;fontSize=12;" parent="1" source="508" target="722" edge="1">
                    <mxGeometry relative="1" as="geometry">
                        <mxPoint x="-210" y="280" as="targetPoint"/>
                        <Array as="points">
                            <mxPoint x="-160" y="189"/>
                            <mxPoint x="-160" y="285"/>
                        </Array>
                    </mxGeometry>
                </mxCell>
                <mxCell id="724" style="edgeStyle=none;html=1;exitX=0;exitY=0.5;exitDx=0;exitDy=0;entryX=1;entryY=0.25;entryDx=0;entryDy=0;endArrow=none;endFill=0;fontSize=12;" parent="1" source="722" target="693" edge="1">
                    <mxGeometry relative="1" as="geometry"/>
                </mxCell>
                <mxCell id="722" value="Effettuato" style="rhombus;whiteSpace=wrap;html=1;fontSize=12;" parent="1" vertex="1">
                    <mxGeometry x="-263.75" y="255" width="80" height="60" as="geometry"/>
                </mxCell>
                <mxCell id="725" value="(1, 1)" style="text;html=1;align=center;verticalAlign=middle;resizable=0;points=[];autosize=1;strokeColor=none;fillColor=none;fontSize=12;" parent="1" vertex="1">
                    <mxGeometry x="-315" y="255" width="50" height="30" as="geometry"/>
                </mxCell>
                <mxCell id="726" value="Articolo" style="swimlane;childLayout=stackLayout;horizontal=1;startSize=30;horizontalStack=0;rounded=1;fontSize=12;fontStyle=0;strokeWidth=2;resizeParent=0;resizeLast=1;shadow=0;dashed=0;align=center;arcSize=15;fillColor=#1ba1e2;fontColor=#ffffff;strokeColor=#006EAF;" parent="1" vertex="1">
                    <mxGeometry x="-100" y="532.5" width="170" height="110" as="geometry"/>
                </mxCell>
                <mxCell id="731" style="edgeStyle=none;html=1;fontSize=12;" parent="726" source="727" target="726" edge="1">
                    <mxGeometry relative="1" as="geometry"/>
                </mxCell>
                <mxCell id="733" style="edgeStyle=none;html=1;endArrow=none;endFill=0;fontSize=12;" parent="726" source="727" target="726" edge="1">
                    <mxGeometry relative="1" as="geometry"/>
                </mxCell>
                <mxCell id="727" value="+ PK: Id&#10;+ Nome&#10;+ Descrizione&#10;+ Immagine&#10;+ Status" style="align=left;strokeColor=none;fillColor=none;spacingLeft=4;fontSize=12;verticalAlign=top;resizable=0;rotatable=0;part=1;" parent="726" vertex="1">
                    <mxGeometry y="30" width="170" height="80" as="geometry"/>
                </mxCell>
                <mxCell id="730" style="edgeStyle=none;html=1;exitX=0;exitY=0.5;exitDx=0;exitDy=0;endArrow=none;endFill=0;entryX=0.826;entryY=0.995;entryDx=0;entryDy=0;entryPerimeter=0;fontSize=12;" parent="1" source="728" target="727" edge="1">
                    <mxGeometry relative="1" as="geometry">
                        <mxPoint x="130" y="682.5" as="sourcePoint"/>
                        <mxPoint x="60" y="640" as="targetPoint"/>
                        <Array as="points">
                            <mxPoint x="40" y="720"/>
                        </Array>
                    </mxGeometry>
                </mxCell>
                <mxCell id="728" value="Riferisce" style="rhombus;whiteSpace=wrap;html=1;fontSize=12;" parent="1" vertex="1">
                    <mxGeometry x="130" y="695" width="85" height="50" as="geometry"/>
                </mxCell>
                <mxCell id="729" style="edgeStyle=none;html=1;entryX=1;entryY=0.5;entryDx=0;entryDy=0;endArrow=none;endFill=0;exitX=0;exitY=0.5;exitDx=0;exitDy=0;fontSize=12;" parent="1" source="523" target="728" edge="1">
                    <mxGeometry relative="1" as="geometry">
                        <Array as="points"/>
                        <mxPoint x="310" y="623" as="sourcePoint"/>
                    </mxGeometry>
                </mxCell>
                <mxCell id="735" value="(0, N)" style="text;html=1;align=center;verticalAlign=middle;resizable=0;points=[];autosize=1;strokeColor=none;fillColor=none;fontSize=12;" parent="1" vertex="1">
                    <mxGeometry x="70" y="572.5" width="50" height="30" as="geometry"/>
                </mxCell>
            </root>
        </mxGraphModel>
    </diagram>
</mxfile>